<svg width="54" height="55" viewBox="0 0 54 55" fill="none" xmlns="http://www.w3.org/2000/svg">
<g filter="url(#filter0_d)">
<path d="M27 22.1944C30.6512 22.1944 33.6111 19.2719 33.6111 15.6667C33.6111 12.0615 30.6512 9.13889 27 9.13889C23.3488 9.13889 20.3889 12.0615 20.3889 15.6667C20.3889 19.2719 23.3488 22.1944 27 22.1944Z" fill="#2C98F0"/>
<path d="M16.9723 16.3194H17.639V15.7222C17.6431 13.9856 18.133 12.2847 19.0535 10.812C19.9739 9.33928 21.2881 8.15354 22.8473 7.38889C22.3857 6.32578 21.6448 5.40755 20.7032 4.73172C19.7617 4.05589 18.6546 3.6477 17.4997 3.5505C16.3448 3.4533 15.1851 3.67073 14.1438 4.17968C13.1026 4.68864 12.2186 5.47012 11.5858 6.44112C10.953 7.41212 10.595 8.53639 10.5498 9.69452C10.5046 10.8526 10.774 12.0014 11.3293 13.0187C11.8845 14.036 12.705 14.884 13.7034 15.4725C14.7019 16.061 15.8411 16.3681 17.0001 16.3611L16.9723 16.3194Z" fill="#2C98F0"/>
<path d="M36.389 15.6667V16.2639H37.0556C38.1992 16.2524 39.3185 15.9329 40.2957 15.3389C41.273 14.7449 42.072 13.8984 42.6088 12.8886C43.1455 11.8788 43.4001 10.743 43.3457 9.60064C43.2913 8.45833 42.93 7.3518 42.2998 6.39753C41.6695 5.44325 40.7937 4.67653 39.7645 4.17806C38.7352 3.67959 37.5906 3.46781 36.4511 3.56501C35.3117 3.66222 34.2195 4.06481 33.2895 4.7304C32.3596 5.396 31.6262 6.3 31.1667 7.34723C32.7265 8.10889 34.0421 9.29163 34.965 10.7618C35.8878 12.2319 36.3811 13.9309 36.389 15.6667Z" fill="#2C98F0"/>
<path d="M32.9585 22.8472C35.72 23.3938 38.39 24.329 40.889 25.625C41.2411 25.8184 41.56 26.0669 41.8335 26.3611H49.2224V21.6111C49.2237 21.4289 49.1753 21.2498 49.0823 21.0932C48.9893 20.9365 48.8552 20.8082 48.6946 20.7222C45.0948 18.8393 41.0904 17.8621 37.0279 17.875H36.1113C35.6299 19.8315 34.5229 21.5774 32.9585 22.8472Z" fill="#2C98F0"/>
<path d="M11.0695 29.0556C11.067 28.3561 11.2559 27.6692 11.6158 27.0694C11.9757 26.4696 12.4928 25.9797 13.1112 25.6528C15.6102 24.3568 18.2803 23.4216 21.0417 22.875C19.4849 21.616 18.3786 19.8859 17.889 17.9444H16.9723C12.9098 17.9315 8.90543 18.9088 5.30564 20.7917C5.14504 20.8777 5.01099 21.006 4.91798 21.1626C4.82496 21.3193 4.77651 21.4984 4.77786 21.6806V30.5556H11.0695V29.0556Z" fill="#2C98F0"/>
<path d="M31.8057 37.0695H40.0834V39.0139H31.8057V37.0695Z" fill="#2C98F0"/>
<path d="M47.5694 29.5278H38.0277V28.1389C38.0277 27.7705 37.8814 27.4173 37.621 27.1568C37.3605 26.8963 37.0072 26.75 36.6389 26.75C36.2705 26.75 35.9172 26.8963 35.6568 27.1568C35.3963 27.4173 35.25 27.7705 35.25 28.1389V29.5278H32.5555V25.5972C30.7282 25.2135 28.8671 25.0134 27 25C22.6163 24.9817 18.2953 26.0405 14.4166 28.0833C14.2439 28.173 14.0993 28.3086 13.9988 28.4753C13.8983 28.6419 13.8458 28.8332 13.8472 29.0278V36.8194H23.7222V45.2778C23.7222 45.6461 23.8685 45.9994 24.129 46.2599C24.3895 46.5203 24.7427 46.6667 25.1111 46.6667H47.5694C47.9378 46.6667 48.291 46.5203 48.5515 46.2599C48.812 45.9994 48.9583 45.6461 48.9583 45.2778V30.9167C48.9583 30.5483 48.812 30.195 48.5515 29.9346C48.291 29.6741 47.9378 29.5278 47.5694 29.5278ZM46.1805 43.9167H26.5V32.3056H35.25V33.5694C35.25 33.9378 35.3963 34.2911 35.6568 34.5515C35.9172 34.812 36.2705 34.9583 36.6389 34.9583C37.0072 34.9583 37.3605 34.812 37.621 34.5515C37.8814 34.2911 38.0277 33.9378 38.0277 33.5694V32.3056H46.1805V43.9167Z" fill="#2C98F0"/>
</g>
<defs>
<filter id="filter0_d" x="-2" y="0" width="58" height="58" filterUnits="userSpaceOnUse" color-interpolation-filters="sRGB">
<feFlood flood-opacity="0" result="BackgroundImageFix"/>
<feColorMatrix in="SourceAlpha" type="matrix" values="0 0 0 0 0 0 0 0 0 0 0 0 0 0 0 0 0 0 127 0"/>
<feOffset dy="4"/>
<feGaussianBlur stdDeviation="2"/>
<feColorMatrix type="matrix" values="0 0 0 0 0 0 0 0 0 0 0 0 0 0 0 0 0 0 0.25 0"/>
<feBlend mode="normal" in2="BackgroundImageFix" result="effect1_dropShadow"/>
<feBlend mode="normal" in="SourceGraphic" in2="effect1_dropShadow" result="shape"/>
</filter>
</defs>
</svg>
