<svg width="512" height="512" viewBox="0 0 512 512" fill="none" xmlns="http://www.w3.org/2000/svg">
<path d="M409.911 447.723L409.925 447.737C367.79 481.605 314.266 501.869 256.001 501.869C162.369 501.869 80.962 449.534 39.434 372.518L119.111 307.295C139.875 362.71 193.331 402.157 256 402.157C282.937 402.157 308.173 394.876 329.828 382.163L409.911 447.723Z" fill="#28B446"/>
<path d="M497.572 210.069C500.395 224.943 501.868 240.303 501.868 256C501.868 273.603 500.017 290.773 496.491 307.335C484.522 363.696 453.248 412.91 409.924 447.736L409.91 447.722L329.827 382.162C358.575 365.302 381.041 338.919 392.875 307.334H261.404V210.068H394.794L497.572 210.069Z" fill="#518EF8"/>
<path d="M412.937 66.736L333.287 131.945C310.875 117.936 284.384 109.844 256.001 109.844C191.913 109.844 137.457 151.101 117.734 208.502L37.638 142.928H37.624C78.543 64.034 160.976 10.132 256 10.132C315.657 10.132 370.356 31.382 412.937 66.736Z" fill="#F14336"/>
<path d="M119.111 307.295L39.434 372.518C20.737 337.839 10.132 298.162 10.132 256C10.132 215.229 20.048 176.782 37.623 142.928H37.637L117.733 208.502C112.627 223.389 109.844 239.371 109.844 256C109.844 274.048 113.113 291.34 119.111 307.295Z" fill="#FBBB00"/>
<path d="M507.526 208.179C506.618 203.397 502.438 199.937 497.572 199.937H261.404C255.808 199.937 251.272 204.473 251.272 210.069V307.336C251.272 312.932 255.808 317.468 261.404 317.468H377.37C365.618 340.617 347.307 360.168 324.699 373.426C303.972 385.594 280.216 392.026 256 392.026C199.584 392.026 148.384 356.547 128.594 303.731C122.874 288.518 119.975 272.46 119.975 256.002C119.975 240.868 122.444 225.993 127.315 211.796C146.186 156.877 197.901 119.978 256 119.978C281.528 119.978 306.398 127.088 327.916 140.539C331.601 142.842 336.343 142.538 339.704 139.787L419.354 74.578C421.695 72.661 423.057 69.798 423.068 66.774C423.079 63.748 421.736 60.877 419.408 58.944C373.63 20.933 315.597 0 256 0C159.986 0 72.863 52.979 28.631 138.259C9.901 174.338 0 215.052 0 256C0 298.345 10.552 340.298 30.515 377.326C75.307 460.396 161.708 512 256 512C314.132 512 371.05 491.982 416.272 455.634C462.216 418.701 494.224 366.782 506.4 309.445C510.115 291.994 512 274.012 512 256C512 239.905 510.495 223.816 507.526 208.179ZM256 20.264C306.746 20.264 356.256 36.741 396.751 66.892L332.351 119.616C309.112 106.573 282.871 99.711 255.999 99.711C194.066 99.711 138.469 136.222 113.443 191.895L50.516 140.378C92.333 66.078 170.323 20.264 256 20.264ZM20.264 256C20.264 221.986 27.293 189.383 41.143 158.892L106.008 211.995C101.835 226.246 99.713 241.013 99.713 255.999C99.713 272.429 102.237 288.524 107.215 303.939L42.803 356.666C28.04 325.39 20.264 290.847 20.264 256ZM52.435 374.968L115.111 323.663C126.615 347.649 143.998 368.26 166 383.785C192.428 402.432 223.549 412.288 256.001 412.288C281.427 412.288 306.412 406.091 328.718 394.348L393.576 447.445C353.387 476.459 306.09 491.738 255.999 491.738C171.95 491.736 94.709 447.204 52.435 374.968ZM486.581 305.23C475.936 355.36 448.805 400.986 409.861 434.588L346.95 383.085C372.069 365.069 391.503 339.877 402.364 310.889C403.53 307.778 403.096 304.292 401.202 301.562C399.309 298.832 396.198 297.203 392.875 297.203H271.536V220.2H489.029C490.827 231.979 491.736 243.986 491.736 255.999C491.736 272.596 490.002 289.158 486.581 305.23Z" fill="#333333"/>
</svg>
