<?xml version="1.0" encoding="UTF-8" standalone="no"?>
<svg
   xmlns:dc="http://purl.org/dc/elements/1.1/"
   xmlns:cc="http://creativecommons.org/ns#"
   xmlns:rdf="http://www.w3.org/1999/02/22-rdf-syntax-ns#"
   xmlns:svg="http://www.w3.org/2000/svg"
   xmlns="http://www.w3.org/2000/svg"
   xmlns:sodipodi="http://sodipodi.sourceforge.net/DTD/sodipodi-0.dtd"
   xmlns:inkscape="http://www.inkscape.org/namespaces/inkscape"
   version="1.1"
   id="svg10"
   width="583"
   height="273"
   viewBox="0 0 583 273"
   sodipodi:docname="Laaps.svg"
   inkscape:version="1.0 (4035a4fb49, 2020-05-01)">
  <metadata
     id="metadata16">
    <rdf:RDF>
      <cc:Work
         rdf:about="">
        <dc:format>image/svg+xml</dc:format>
        <dc:type
           rdf:resource="http://purl.org/dc/dcmitype/StillImage" />
        <dc:title />
      </cc:Work>
    </rdf:RDF>
  </metadata>
  <defs
     id="defs14" />
  <sodipodi:namedview
     inkscape:document-rotation="0"
     pagecolor="#ffffff"
     bordercolor="#666666"
     borderopacity="1"
     objecttolerance="10"
     gridtolerance="10"
     guidetolerance="10"
     inkscape:pageopacity="0"
     inkscape:pageshadow="2"
     inkscape:window-width="1366"
     inkscape:window-height="715"
     id="namedview12"
     showgrid="false"
     inkscape:zoom="1.0108636"
     inkscape:cx="285.16293"
     inkscape:cy="94.947828"
     inkscape:window-x="-8"
     inkscape:window-y="-8"
     inkscape:window-maximized="1"
     inkscape:current-layer="g18" />
  <g
     inkscape:groupmode="layer"
     inkscape:label="Image"
     id="g18">
    <path
       style="fill:#000000"
       d="m 76.008256,211.19855 c -5.486777,-2.49117 -7.728097,-6.00587 -9.764333,-15.31183 -0.547318,-2.50134 -1.006909,-2.75 -5.082676,-2.75 h -4.480948 v -18.32186 c 0,-19.64124 0.800511,-24.1418 5.679953,-31.93333 2.897725,-4.6271 9.294577,-9.37472 14.731411,-10.93335 2.24875,-0.64467 4.28557,-1.32541 4.526268,-1.51276 0.240698,-0.18735 -1.492461,-2.30725 -3.851463,-4.7109 -3.935658,-4.01014 -4.610779,-4.32712 -8.192869,-3.84666 -3.165302,0.42455 -4.667101,-0.005 -7.938937,-2.27277 -9.924533,-6.8777 -12.540477,-13.60953 -7.317999,-18.83202 1.925057,-1.925048 3.663416,-2.636358 6.443,-2.636358 3.236221,0 4.714263,0.8403 9.863636,5.607718 5.785188,5.35607 6.057,5.82258 6.057,10.39576 0,4.62974 0.159933,4.89067 4.837547,7.89228 2.660651,1.70734 5.068436,3.10425 5.350633,3.10425 0.282197,0 1.287756,-3.4875 2.234579,-7.75 2.75203,-12.38939 6.10619,-19.446688 12.622332,-26.557908 13.75644,-15.01273 40.87505,-22.23622 64.2575,-17.11605 10.77979,2.3605 24.18409,9.30193 30.8663,15.98414 6.82349,6.82349 9.99157,13.090128 12.86754,25.452628 1.21388,5.21795 2.36017,9.65758 2.54729,9.86583 0.18713,0.20826 2.60735,-1.07615 5.37826,-2.85424 4.90479,-3.14739 5.03802,-3.36014 5.03802,-8.04474 0,-4.62595 0.23839,-5.02758 6.17041,-10.39576 5.14589,-4.656758 6.78364,-5.583908 9.86364,-5.583908 5.09433,0 8.96595,3.886128 8.96595,8.999528 0,3.16248 -0.72863,4.40835 -4.81195,8.22781 -6.24729,5.84361 -8.36044,6.90252 -13.2042,6.61672 -3.45157,-0.20366 -4.54392,0.29695 -7.98954,3.66151 -2.19523,2.14358 -3.6545,4.18237 -3.24282,4.53065 0.41168,0.34827 2.81827,1.39395 5.34797,2.32372 6.51957,2.39622 12.32406,7.76366 15.59045,14.41656 2.75627,5.61389 2.81629,6.11134 3.1338,25.97351 l 0.32371,20.25 h -4.55466 c -4.15941,0 -4.60572,0.23864 -5.14306,2.75 -1.1278,5.27094 -3.53379,11.01613 -5.27224,12.5894 -4.74869,4.2975 -13.70521,5.78119 -21.2512,3.52036 -6.43579,-1.92821 -11.92626,-9.52842 -11.92626,-16.50898 v -2.35078 h -44.87117 -44.87117 l -0.64729,4.87951 c -0.35601,2.68373 -1.66385,6.38798 -2.90632,8.23168 -4.263552,6.32669 -16.910975,8.79408 -25.376094,4.95064 z M 181.78242,173.86679 c 9.02944,-6.03207 9.02944,-19.42807 0,-25.46014 -3.33553,-2.22827 -3.92469,-2.26993 -32.10212,-2.26993 -28.24228,0 -28.75892,0.0368 -32.10212,2.28566 -1.86883,1.25711 -4.16377,3.84461 -5.09985,5.75 -3.42874,6.97917 -1.24337,15.41179 5.09985,19.67868 3.3432,2.24888 3.85984,2.28566 32.10212,2.28566 28.17743,0 28.76659,-0.0417 32.10212,-2.26993 z m -60.09155,-2.21734 c -0.67888,-0.81799 -0.9731,-2.16799 -0.65383,-3 0.87428,-2.27834 56.41224,-2.27834 57.28652,0 0.31927,0.83201 0.025,2.18201 -0.65383,3 -1.84151,2.21889 -54.13735,2.21889 -55.97886,0 z m -4.76057,-8.16799 c -2.13005,-0.87146 -1.43167,-4.26233 1,-4.85534 1.2375,-0.30179 16.425,-0.42287 33.75,-0.26906 l 31.5,0.27966 v 2.5 2.5 l -32.5,0.17808 c -17.875,0.0979 -33.0625,-0.0521 -33.75,-0.33334 z m 4.06213,-9.97373 c -1.48128,-3.86015 1.82096,-4.37169 28.129,-4.35736 13.78238,0.008 26.09498,0.29117 27.36134,0.63036 1.63513,0.43795 2.2148,1.23104 2,2.73634 -0.29898,2.09518 -0.62886,2.12272 -28.57786,2.38527 -25.57436,0.24024 -28.33625,0.10702 -28.91248,-1.39461 z m -38.620908,12.19246 c 7.274436,-3.38693 11.774376,-11.06271 12.348486,-21.06347 0.3348,-5.83211 0.35644,-5.81021 -5.03601,-5.09488 -13.747474,1.82367 -23.003699,11.47596 -23.003699,23.98801 0,5.05905 7.314036,6.07069 15.691223,2.17034 z m -9.991567,-3.90377 c -0.674706,-1.75826 1.74694,-8.39043 3.955263,-10.83231 2.372228,-2.62311 8.648201,-5.82739 11.413651,-5.82739 1.838589,0 2.052089,0.39639 1.481169,2.75 -1.280935,5.28058 -4.528513,10.80588 -7.278497,12.38335 -3.957241,2.26998 -8.978933,3.07078 -9.571586,1.52635 z m 158.366085,5.30512 c 3.8812,-2.07716 1.75742,-12.47487 -3.89743,-19.08129 -3.97859,-4.64809 -9.79272,-7.49951 -17.33061,-8.49945 l -5.1549,-0.68382 0.62611,6.70484 c 1.0469,11.211 6.56459,18.92221 15.45513,21.59919 3.9076,1.17659 8.05919,1.16068 10.3017,-0.0395 z m -8.89642,-4.95738 c -4.75773,-1.1254 -8.97805,-5.62425 -10.69283,-11.39855 -1.81619,-6.1158 -1.86711,-5.60889 0.56335,-5.60889 2.60821,0 8.95221,3.22548 11.17202,5.68019 2.36201,2.61195 5.0253,9.25939 4.38172,10.93654 -0.58326,1.51996 -0.63458,1.52366 -5.42426,0.39071 z M 125.1803,126.1563 c 21.61964,-1.06385 53.93026,-0.56114 67.95265,1.05726 4.37395,0.50483 8.31986,0.55065 8.76867,0.10184 1.2134,-1.2134 -3.88905,-19.75556 -6.80608,-24.73309 -5.37159,-9.165948 -17.24962,-16.501758 -32.11265,-19.832628 -9.11317,-2.0423 -16.02594,-2.03934 -25.94563,0.0111 -20.32575,4.20143 -32.87094,14.53886 -36.8633,30.375938 -0.901232,3.575 -2.036652,8.03675 -2.523162,9.915 -1.14557,4.42259 -0.43642,5.40507 3.397922,4.70759 1.72237,-0.3133 12.58158,-1.03466 24.13158,-1.60301 z m 338.5,3.98042 V 87.136712 h 11 11 v 3 c 0,1.65 0.27809,3 0.61798,3 0.3399,0 2.12091,-1.31958 3.95781,-2.9324 4.64297,-4.07658 10.75639,-4.89894 16.74052,-2.25188 7.94046,3.51244 8.14021,4.40173 8.12743,36.184288 -0.01,24.92159 -0.1883,27.8635 -1.90153,31.37686 -2.04586,4.19548 -7.72385,7.56091 -12.82433,7.60118 -3.67326,0.029 -8.75467,-2.18214 -11.12287,-4.84002 -1.04774,-1.17591 -2.28524,-2.13802 -2.75,-2.13802 -0.46475,0 -0.84501,3.825 -0.84501,8.5 v 8.5 h -11 -11 z m 28.5,-5.5 V 99.636712 l -2.38691,-0.33749 c -1.3128,-0.18562 -2.76841,0.26438 -3.23469,0.999998 -0.46627,0.73562 -0.85467,11.71 -0.86309,24.3875 -0.0161,24.24055 0.26756,25.84106 4.47301,25.23832 1.95424,-0.28009 2.01168,-1.00215 2.01168,-25.28832 z M 45.180299,161.56976 c -5.090379,-2.63791 -9.414492,-7.58857 -11.502426,-13.16907 -2.4932,-6.66367 -2.497471,-8.92689 -0.02911,-15.4231 3.512989,-9.24544 12.76605,-16.39128 17.762386,-13.71732 3.012903,1.61246 2.86309,2.6985 -0.480854,3.48586 -12.857914,3.02749 -18.060138,18.33218 -9.634806,28.34512 3.489909,4.14752 4.570008,3.83162 2.277007,-0.66597 -2.327818,-4.56588 -2.434711,-11.34305 -0.251474,-15.94388 3.34823,-7.05587 12.708025,-11.31509 17.495842,-7.96158 1.269644,0.8893 3.368118,1.6169 4.663275,1.6169 2.090343,0 1.800923,0.50408 -2.576795,4.48802 -6.987767,6.35921 -11.384104,15.0307 -12.002547,23.67425 -0.526343,7.35633 -0.947379,7.74427 -5.720502,5.27077 z M 356.59387,162.181 c -4.42166,-1.33999 -7.71939,-4.04849 -8.83875,-7.25949 -1.61153,-4.62285 -1.37197,-22.30948 0.34721,-25.63401 1.43412,-2.77329 7.02648,-5.99651 17.65799,-10.17739 7.96564,-3.13252 8.91998,-4.30268 8.91998,-10.93725 0,-6.26586 -1.6321,-9.446228 -4.55839,-8.882678 -2.20062,0.4238 -3.14584,3.722118 -3.3233,11.596538 l -0.11831,5.25 h -10 -10 v -7.03212 c 0,-8.43821 1.51384,-12.455838 6.26527,-16.627648 4.99081,-4.38199 9.90416,-5.83209 19.73473,-5.8244 13.25427,0.0104 20.86014,4.65179 23.04253,14.061548 0.50036,2.15745 0.92049,16.86012 0.93361,32.67262 l 0.0239,28.75 h -10.5 -10.5 v -3 c 0,-3.50746 -0.99706,-3.83561 -2.81404,-0.92617 -2.49806,4.00003 -10.07458,5.84869 -16.27239,3.97045 z m 17.86458,-24.54428 0.27816,-12 -3.64193,3.63044 c -3.52591,3.51479 -3.64346,3.86787 -3.68996,11.08369 -0.0559,8.6801 0.51536,10.01032 4.12002,9.59318 l 2.65556,-0.30731 z m 40.19032,24.55896 c -7.63229,-2.31886 -9.96847,-6.98959 -9.96847,-19.92997 0,-4.8568 0.47722,-10.19951 1.0605,-11.87269 1.13863,-3.26629 6.21284,-6.37401 19.21032,-11.76545 7.55655,-3.13451 8.03125,-3.91797 7.53826,-12.4413 -0.32577,-5.6321 -2.08556,-7.924918 -5.17316,-6.740088 -1.32666,0.50909 -1.63592,2.146048 -1.63592,8.659158 v 8.03138 h -10.5 -10.5 v -6.35078 c 0,-7.90825 1.4028,-12.230598 5.31829,-16.386858 4.39977,-4.67034 10.64327,-6.76237 20.18171,-6.76237 13.28711,0 20.97669,4.35393 23.45599,13.28105 0.60151,2.165828 1.03519,15.934498 1.03843,32.968958 l 0.006,29.25 h -10.5 -10.5 v -3.18709 -3.18709 l -2.75,2.62347 c -4.59652,4.38504 -10.12785,5.6793 -16.28153,3.80967 z m 17.77643,-24.55896 0.2449,-12 -3.4949,3.73531 c -3.37901,3.61146 -3.4949,3.99555 -3.4949,11.58334 0,4.31641 0.32066,8.16868 0.71258,8.56059 0.39191,0.39192 1.85441,0.57942 3.25,0.41667 l 2.53742,-0.29591 z m 104.92257,24.13044 c -5.42241,-1.52957 -9.06154,-3.93827 -12.10133,-8.00973 -1.57047,-2.10347 -2.14271,-4.63325 -2.41768,-10.68822 l -0.36023,-7.93249 h 9.60588 9.60589 v 4.9349 c 0,7.3736 1.38657,10.26902 4.73208,9.88148 3.51542,-0.40724 5.01217,-4.24768 3.70112,-9.49652 -0.84348,-3.37691 -1.89459,-4.30044 -10.9332,-9.60616 -12.31701,-7.23016 -14.94721,-9.66769 -16.52935,-15.31851 -1.61632,-5.77296 -0.75531,-16.347398 1.67729,-20.599338 3.09531,-5.4103 10.12316,-8.2711 20.35206,-8.28462 10.29092,-0.0136 16.58815,2.11673 20.9534,7.08847 2.77175,3.15684 3.0466,4.09825 3.0466,10.435098 v 6.9652 h -9.5 -9.5 v -4.41821 c 0,-5.865 -0.77147,-7.581798 -3.40699,-7.581798 -3.1481,0 -4.59301,1.880458 -4.59301,5.977498 0,4.98146 2.16241,7.57299 9.32212,11.17203 17.40389,8.74859 20.29065,12.70429 19.48078,26.69436 -0.56428,9.74756 -2.64606,13.68478 -8.95143,16.92963 -5.75556,2.96192 -17.1619,3.83773 -24.184,1.85693 z M 303.6803,116.63672 V 71.136712 h 12 12 v 36.500008 36.5 h 7 7 v 9 9 h -19 -19 z m -54.99037,37.51799 c -0.5553,-1.03758 -1.00963,-2.6406 -1.00963,-3.56227 0,-3.15826 -6.20969,-13.32689 -10.71976,-17.55407 l -4.50948,-4.22662 3.15333,-1.08752 c 4.29406,-1.48092 13.65044,-9.16302 16.21604,-13.31424 1.67551,-2.71104 2.00502,-4.50946 1.63772,-8.93861 l -0.45982,-5.544738 3.51376,0.570198 c 3.13935,0.50945 3.30888,0.42924 1.59099,-0.752668 -1.05753,-0.72759 -3.61028,-1.87181 -5.67278,-2.54272 -4.00771,-1.30367 -4.44632,-1.96842 -2.55,-3.86474 4.90827,-4.90827 20.09225,6.873968 24.32719,18.877078 1.8858,5.34492 1.89259,16.4817 0.0133,21.80819 -3.30097,9.35594 -11.24687,17.33576 -20.51987,20.60747 -3.70447,1.30701 -4.07627,1.27179 -5.01098,-0.47474 z M 215.29376,108.5718 c -0.3374,-0.87926 -0.61346,-2.01055 -0.61346,-2.51399 0,-1.53116 7.1375,-8.921098 8.61636,-8.921098 1.86162,0 1.76812,2.63848 -0.11916,3.362698 -0.82654,0.31718 -2.80049,2.62292 -4.38654,5.12387 -2.17032,3.42225 -3.0355,4.15168 -3.4972,2.94852 z M 81.30398,106.37589 c -1.400977,-2.70919 -8.468809,-9.174088 -13.848086,-12.666758 -2.582909,-1.67703 -6.571365,-1.79654 -14.275595,-0.42775 -1.810068,0.32159 -1.990435,-0.16698 -1.89928,-5.14467 0.06314,-3.44797 0.886247,-7.03872 2.20615,-9.62421 3.412,-6.68357 11.19313,-12.08985 11.19313,-7.77692 0,2.66426 2.905984,7.92498 6.296358,11.39834 4.196237,4.29895 10.67767,7.00279 16.786547,7.00279 2.704404,0 4.917094,0.23394 4.917094,0.51987 0,0.28593 -1.12661,2.30454 -2.50358,4.48579 -1.37696,2.18126 -3.289462,6.441128 -4.249995,9.466378 -0.960533,3.02524 -2.072368,5.50664 -2.470744,5.51421 -0.398376,0.008 -1.366776,-1.22861 -2.151999,-2.74707 z m -38.568073,-4.63506 c -2.040875,-4.736388 -2.053944,-5.041608 -0.401189,-9.369288 1.458861,-3.81997 1.53824,-5.28469 0.543428,-10.02749 -1.060667,-5.05676 -0.968512,-5.94748 1.029184,-9.94747 2.638622,-5.28333 8.999474,-11.35633 14.860634,-14.18813 5.189686,-2.50739 7.35596,-2.67019 6.519324,-0.48995 -0.333844,0.86998 -0.606989,2.24295 -0.606989,3.05103 0,0.80808 -1.6875,2.17275 -3.75,3.0326 -6.065814,2.52882 -9.12726,5.19188 -12.272069,10.67507 -2.41475,4.21029 -2.960889,6.31849 -2.968547,11.45917 -0.0053,3.58551 0.619693,7.51616 1.450734,9.12322 0.803064,1.55295 1.211548,3.07212 0.907742,3.37593 -0.303806,0.3038 -1.148687,2.273358 -1.877514,4.376788 l -1.32514,3.82441 z M 210.03665,95.378342 c -3.40702,-5.94679 -10.1289,-13.01265 -16.48609,-17.32974 -3.22864,-2.19253 -5.87026,-4.36505 -5.87026,-4.82783 0,-0.91461 3.88453,-2.63763 8.24309,-3.6563 3.8052,-0.88934 2.43483,-2.42776 -2.16256,-2.42776 -2.32483,0 -5.12655,0.89925 -7.21286,2.31505 -2.97886,2.02151 -3.78018,2.16432 -6.31972,1.12629 l -2.9083,-1.18877 4.42289,-2.79205 c 5.45415,-3.44305 16.30534,-4.55511 21.9367,-2.24812 3.47094,1.42193 3.49998,1.48551 3.59031,7.86056 0.10276,7.25225 2.53472,13.73035 6.89229,18.35921 2.61304,2.77572 2.67804,3.06778 1.21823,5.47367 -2.20432,3.63292 -2.93376,3.54225 -5.34372,-0.66421 z m -188.59378,1.19298 c -2.996684,-1.62598 -5.762571,-6.14594 -5.762571,-9.41707 0,-3.86162 2.813667,-8.86982 5.871562,-10.45112 6.026067,-3.1162 12.775669,-0.93694 15.61228,5.04077 1.902941,4.01015 1.902941,5.77547 0,9.78562 -2.815122,5.93243 -9.895189,8.203 -15.721271,5.0418 z m 3.135312,-16.1508 c 2.952999,-1.98479 3.11071,-2.28381 1.204546,-2.28381 -1.206336,0 -3.297884,1.10455 -4.647884,2.45455 -2.51425,2.51425 -3.026632,4.97859 -1.707767,8.21366 0.561852,1.37818 0.871391,0.84964 1.25,-2.1344 0.394707,-3.11093 1.235939,-4.45867 3.901105,-6.25 z M 225.1803,92.297372 c -2.2,-1.01643 -5.62681,-3.65252 -7.61514,-5.85797 -7.81016,-8.66302 -7.16975,-21.09829 1.49802,-29.08797 8.91901,-8.22125 20.31523,-8.22125 29.23424,0 8.99922,8.29519 9.35105,20.70183 0.84244,29.70726 -3.80162,4.0236 -4.83629,4.55359 -10.0976,5.17229 -3.22408,0.37913 -6.76196,0.96499 -7.86196,1.30189 -1.1,0.33691 -3.8,-0.21906 -6,-1.2355 z m -3.92626,-13.01807 c -4.81846,-9.31788 2.00218,-21.10463 12.25299,-21.17439 4.32647,-0.0294 4.52922,-0.14076 2.73214,-1.5 -2.28744,-1.73013 -6.31445,-1.88918 -10.24377,-0.40458 -9.68773,3.66028 -13.12597,16.25397 -6.56597,24.05009 3.05187,3.62693 3.95405,3.14676 1.82461,-0.97112 z m -141.115111,2.97775 c -6.198449,-2.81557 -11.447476,-10.43651 -11.447476,-16.62034 0,-2.92215 2.380444,-8.81193 4.653066,-11.51279 8.024768,-9.5369 22.335679,-8.98888 29.019641,1.11126 2.32112,3.50745 2.81614,5.33582 2.81614,10.40153 0,5.06572 -0.49502,6.89408 -2.81614,10.40153 -4.895572,7.39771 -14.013362,9.94894 -22.225231,6.21881 z m -1.901926,-8.34285 c -0.883192,-1.26093 -1.556704,-4.29585 -1.556704,-7.01468 0,-6.41681 4.323216,-11.3815 11.535904,-13.24759 l 4.964095,-1.28432 -3.54686,-0.68863 c -4.543097,-0.88205 -11.30802,1.72327 -13.817607,5.32147 -3.621335,5.1922 -3.400925,12.97555 0.489168,17.27405 2.356863,2.60431 3.817678,2.33188 1.932004,-0.3603 z m 39.911647,-9.18451 c -1.68823,-13.51215 4.49716,-25.59506 15.84978,-30.96186 6.52301,-3.08367 11.52578,-4.03306 16.93854,-3.21448 5.96048,0.90141 7.22918,1.83253 5.7419,4.21405 -1.02603,1.64294 -2.16216,1.84942 -8.43347,1.53273 -5.86861,-0.29635 -8.0265,0.0313 -11.34057,1.72204 -5.48816,2.79984 -8.56781,5.793 -11.24486,10.92905 -1.9156,3.67515 -2.16638,5.39918 -1.77324,12.19043 0.35931,6.20688 0.15347,8.02671 -0.95606,8.45248 -3.33726,1.28063 -4.11281,0.49171 -4.78202,-4.86444 z m 10.91775,0.97079 c -1.11621,-2.90878 0.63292,-11.63363 3.12308,-15.57831 4.07301,-6.45207 11.77945,-10.98546 18.67449,-10.98546 2.8826,0 2.88462,0.004 2.22439,4.98154 -0.5575,4.20266 -0.24051,5.84063 2.02739,10.47606 2.46045,5.02897 5.80769,8.74405 8.86473,9.83889 3.25169,1.16456 -0.66364,1.48924 -7.13847,0.59197 -6.70151,-0.92868 -16.33517,-0.23496 -24.90239,1.79323 -1.50783,0.35696 -2.44757,-0.009 -2.87322,-1.11792 z m 38.8639,0.74691 c 0.9625,-0.25153 2.5375,-0.25153 3.5,0 0.9625,0.25152 0.175,0.45732 -1.75,0.45732 -1.925,0 -2.7125,-0.2058 -1.75,-0.45732 z m -3.3624,-7.79699 c -3.5068,-2.2994 -6.91498,-8.39728 -6.86564,-12.28392 0.0452,-3.56242 3.95205,-10.24511 7.1699,-12.26425 4.99384,-3.13355 13.73209,-2.37062 17.83148,1.55684 7.4621,7.14915 5.9039,19.36119 -3.06198,23.99762 -4.27793,2.21221 -10.83259,1.77463 -15.07376,-1.00629 z m 0.35507,-18.30609 c 0.61311,-0.73875 2.72183,-2.23506 4.68604,-3.32513 l 3.57129,-1.98194 -4,0.51801 c -6.84312,0.8862 -10.58793,8.06447 -7.25,13.8972 1.14109,1.99395 1.27735,1.75084 1.56396,-2.79035 0.17268,-2.73603 0.8156,-5.57904 1.42871,-6.31779 z m -124.742671,8.59746 c -3.969295,-2.25085 -4.724714,-6.38673 -1.671259,-9.15007 3.782909,-3.42349 10.189523,-1.11061 10.155946,3.66644 -0.01926,2.74021 -0.904056,4.07354 -3.668946,5.52887 -2.598338,1.36766 -2.319516,1.37028 -4.815741,-0.0452 z m 63.857001,-7.79664 c -4.997212,-2.01662 -6.974962,-9.60946 -3.77509,-14.49308 2.36637,-3.61154 7.53916,-5.02121 11.29615,-3.07839 3.63596,1.88022 6.12194,5.2257 6.12194,8.23851 0,7.26306 -6.96514,12.02781 -13.643,9.33296 z m 1.81291,-13.36751 2.33009,-1.90722 -2.5,0.74555 c -3.17311,0.94629 -3.77981,1.55179 -4.0287,4.02076 -0.4355,4.32024 0.24443,5.95321 1.05097,2.52406 0.44965,-1.91176 1.86609,-4.33418 3.14764,-5.38315 z m 90.75317,4.43602 c -3.72649,-3.72649 -3.84084,-7.83278 -0.33419,-12.0002 5.42781,-6.45058 15.41111,-2.73128 15.41111,5.74145 0,8.43479 -9.11645,12.21922 -15.07692,6.25875 z m 3.77224,-10.49952 c 2.82054,-2.82054 1.1455,-3.64831 -1.86658,-0.92242 -1.20011,1.08609 -1.77724,2.89077 -1.67891,5.25 0.1207,2.896 0.22938,3.07536 0.55895,0.92242 0.22502,-1.46992 1.56896,-3.83242 2.98654,-5.25 z"
       id="path22" />
  </g>
</svg>
