<svg width="58" height="58" viewBox="0 0 58 58" fill="none" xmlns="http://www.w3.org/2000/svg">
<g filter="url(#filter0_d)">
<path d="M29 0C24.0555 0 19.222 1.46622 15.1108 4.21326C10.9995 6.96029 7.79521 10.8648 5.90302 15.4329C4.01083 20.0011 3.51575 25.0277 4.48038 29.8773C5.44501 34.7268 7.82603 39.1813 11.3223 42.6777C14.8187 46.174 19.2732 48.555 24.1228 49.5196C28.9723 50.4842 33.9989 49.9892 38.5671 48.097C43.1352 46.2048 47.0397 43.0005 49.7867 38.8892C52.5338 34.778 54 29.9445 54 25C54 18.3696 51.3661 12.0107 46.6777 7.32233C41.9893 2.63392 35.6304 0 29 0ZM29 8.92857C30.5893 8.92857 32.1429 9.39986 33.4644 10.2828C34.7859 11.1658 35.8158 12.4208 36.424 13.8891C37.0322 15.3575 37.1914 16.9732 36.8813 18.532C36.5713 20.0907 35.8059 21.5226 34.6821 22.6464C33.5583 23.7702 32.1265 24.5355 30.5677 24.8456C29.0089 25.1557 27.3932 24.9965 25.9249 24.3883C24.4565 23.7801 23.2015 22.7502 22.3186 21.4287C21.4356 20.1072 20.9643 18.5536 20.9643 16.9643C20.9619 15.9084 21.1682 14.8624 21.5712 13.8864C21.9742 12.9104 22.566 12.0236 23.3127 11.2769C24.0593 10.5303 24.9461 9.93845 25.9221 9.53546C26.8981 9.13246 27.9441 8.92622 29 8.92857ZM43.2857 40.9286C39.3697 44.4684 34.2788 46.4283 29 46.4283C23.7212 46.4283 18.6303 44.4684 14.7143 40.9286V39.8928C14.6467 37.4478 15.5465 35.0749 17.2182 33.2895C18.89 31.504 21.1987 30.4503 23.6429 30.3571H34.3571C36.7902 30.4548 39.0881 31.5025 40.7574 33.2753C42.4267 35.0481 43.3344 37.4047 43.2857 39.8393V40.9286Z" fill="#2C98F0"/>
</g>
<defs>
<filter id="filter0_d" x="0" y="0" width="58" height="58" filterUnits="userSpaceOnUse" color-interpolation-filters="sRGB">
<feFlood flood-opacity="0" result="BackgroundImageFix"/>
<feColorMatrix in="SourceAlpha" type="matrix" values="0 0 0 0 0 0 0 0 0 0 0 0 0 0 0 0 0 0 127 0"/>
<feOffset dy="4"/>
<feGaussianBlur stdDeviation="2"/>
<feColorMatrix type="matrix" values="0 0 0 0 0 0 0 0 0 0 0 0 0 0 0 0 0 0 0.25 0"/>
<feBlend mode="normal" in2="BackgroundImageFix" result="effect1_dropShadow"/>
<feBlend mode="normal" in="SourceGraphic" in2="effect1_dropShadow" result="shape"/>
</filter>
</defs>
</svg>
